<svg width="45" height="45" viewBox="0 0 45 45" fill="none" xmlns="http://www.w3.org/2000/svg">
<circle cx="22.5" cy="22.5" r="22.5" fill="#2656BE"/>
<g clip-path="url(#clip0_967_102)">
<path d="M26.6727 25.3638C25.2051 25.3638 24.4994 26.182 22.0909 26.182C19.6824 26.182 18.9818 25.3638 17.5091 25.3638C13.7148 25.3638 10.6364 28.4422 10.6364 32.2365V33.5456C10.6364 34.9007 11.7358 36.0002 13.0909 36.0002H31.0909C32.446 36.0002 33.5455 34.9007 33.5455 33.5456V32.2365C33.5455 28.4422 30.467 25.3638 26.6727 25.3638ZM31.0909 33.5456H13.0909V32.2365C13.0909 29.8024 15.075 27.8184 17.5091 27.8184C18.2557 27.8184 19.4676 28.6365 22.0909 28.6365C24.7347 28.6365 25.921 27.8184 26.6727 27.8184C29.1068 27.8184 31.0909 29.8024 31.0909 32.2365V33.5456ZM22.0909 24.5456C26.1563 24.5456 29.4545 21.2473 29.4545 17.182C29.4545 13.1167 26.1563 9.81836 22.0909 9.81836C18.0256 9.81836 14.7273 13.1167 14.7273 17.182C14.7273 21.2473 18.0256 24.5456 22.0909 24.5456ZM22.0909 12.2729C24.796 12.2729 27 14.4769 27 17.182C27 19.8871 24.796 22.0911 22.0909 22.0911C19.3858 22.0911 17.1818 19.8871 17.1818 17.182C17.1818 14.4769 19.3858 12.2729 22.0909 12.2729Z" fill="white"/>
</g>
<defs>
<clipPath id="clip0_967_102">
<rect width="22.9091" height="26.1818" fill="white" transform="translate(10.6364 9.81836)"/>
</clipPath>
</defs>
</svg>
