<?xml version="1.0" encoding="utf-8"?>
<!-- Generator: Adobe Illustrator 23.0.0, SVG Export Plug-In . SVG Version: 6.00 Build 0)  -->
<svg version="1.1" id="Layer_1" xmlns="http://www.w3.org/2000/svg" xmlns:xlink="http://www.w3.org/1999/xlink" x="0px" y="0px"
	 viewBox="0 0 1592 480" style="enable-background:new 0 0 1592 480;" xml:space="preserve">
<style type="text/css">
	.st0{clip-path:url(#SVGID_2_);}
	.st1{fill:#B7B8BC;}
	.st2{fill:#D0D1D8;}
</style>
<g>
	<defs>
		<rect id="SVGID_1_" x="-0.02" width="1592.05" height="480"/>
	</defs>
	<clipPath id="SVGID_2_">
		<use xlink:href="#SVGID_1_"  style="overflow:visible;"/>
	</clipPath>
	<g class="st0">
		<g>
			<path class="st1" d="M1468.19,133.03c10.69,5.75,22.6,8.15,33.89,12.25c18.37,6.67,37.48,11.59,54.24,22.12
				c12.76,8.02,24.53,17.07,23.4,34.44c-0.71,10.85-6.85,19.28-13.82,27.04c-6.59,7.33-14.48,13.24-22.64,18.66
				c-19.11,12.7-38.44,25.06-57.66,37.6c-1.93,1.26-3.69,2.77-5.88,4.42c17.12,6.59,32.02,16.51,47.27,25.73
				c12.08,7.31,11.67,19.05-0.48,26.25c-12.12,7.19-25.79,10.58-39.18,14.11c-25.65,6.77-51.67,12.1-78.06,15.08
				c-13.28,1.5-26.61,2.27-39.77-2.19c-16.37-5.54-22.5-17.6-16.34-33.85c6.79-17.92,21.29-29.45,35.04-41.47
				c10.88-9.51,23-17.4,35.22-25.1c1.97-1.24,3.88-2.6,4.6-5.02c0,0-0.07,0.08-0.07,0.08c7.45-1.18,12.97-6.18,19-9.98
				c20.26-12.76,41.38-24.18,60.47-38.8c12.41-9.51,12.36-12.82-1.08-20.45c-7.64-4.34-15.52-8.11-23.46-11.85
				c-4.86-2.29-6.92-3.11-7.36,3.84c-0.84,13.38-3.53,26.59-7.24,39.49c-4.28,14.89-16.34,22.34-29.16,18.27
				c-6.17-1.96-12.17-4.61-16.92-9.12c-29.25-27.78-53.66-59.15-69.91-96.33c-3.76-8.59-3.65-17.13,4.5-23.8l-0.13,0.07
				c5.39-0.01,10.69-0.95,16.15-0.68c16.81,0.84,32.85,5.88,49.34,8.38c11.44,1.73,22.04,7.15,33.74,7.76
				C1460.01,131,1464.1,132.01,1468.19,133.03z M1444.26,164.74c-23.13-9.33-46.26-18.66-69.39-27.97
				c-1.39-0.56-2.98-1.56-4.34-0.39c-1.72,1.49-0.64,3.28,0,4.96c3.25,8.44,7.39,16.4,12.41,23.93
				c12.29,18.43,24.34,37.05,40.94,52.06c3.78,3.42,8.03,8.07,13.43,5.53c5.37-2.52,4.51-8.85,4.38-13.87
				c-0.31-11.84-0.99-23.67-1.74-35.48C1439.72,169.86,1439.57,166.67,1444.26,164.74z M1422.52,328.61
				c5.21,1.64,8.99,0.92,12.74,0.65c19.48-1.41,38.96-2.72,58.42-4.34c4.34-0.36,11.13,2.46,12.4-2.17
				c1.03-3.75-5.98-6.07-9.41-9.06c-7.46-6.48-18.15-8.64-23.62-17.79c-1.14-1.91-2.72-0.92-3.95-0.04
				C1454.12,306.6,1437.56,315.11,1422.52,328.61z"/>
			<path class="st1" d="M1468.19,133.03c-4.09-1.02-8.18-2.03-12.27-3.05c-3.28-3.96-8.42-4.16-12.66-4.95
				c-7.66-1.42-9.27-5.53-9.17-12.41c0.2-13.43-2.46-26.62-4.74-39.77c-1.74-10.05-4.69-10.72-12.7-4.81
				c-13.14,9.71-23.47,22.33-35.09,33.6c-5.6,5.43-10.65,11.29-19.62,10.09c-2.12-0.28-3.93,1.02-5.25,2.78c0,0,0.13-0.07,0.12-0.07
				c-6.38,0.76-9.35,5.52-8.91,10.74c0.76,8.95-3.82,14.32-9.6,19.78c-11.04,10.44-21.99,20.99-32.64,31.83
				c-6.52,6.64-5.96,10.05,1.66,15.51c3.97,2.84,8.01,5.66,12.27,8.02c32.65,18.09,65.4,36.01,98.03,54.13
				c3.93,2.18,8.67,3.71,10.32,8.73c0,0,0.07-0.08,0.07-0.08c-8.17,6.13-15.45,2.96-23.29-1.38
				c-39.26-21.72-79.63-41.29-119.66-61.53c-11.54-5.83-15.04-15.07-10.05-26.99c8.36-19.99,21.66-36.81,34.97-53.54
				c28.58-35.94,57.97-71.18,92.38-101.82c7.31-6.5,15.17-12.36,24.68-15.57c16.17-5.44,28.26-0.58,36.04,14.6
				c7.21,14.08,9.12,29.64,10.85,44.87c2.35,20.7,4.36,41.52,3.83,62.49C1477.6,131.46,1475.24,134.29,1468.19,133.03z"/>
		</g>
		<g>
			<path class="st2" d="M127.21,200.92c11.99,0.02,11.67,0.13,15.68,11.26c16.98,47.06,34.08,94.07,51.34,141.03
				c5.19,14.12,5.46,13.5-9.13,14.18c-8.82,0.41-12.86-2.69-15.18-11.17c-2.98-10.91-7.69-21.33-11.35-32.06
				c-1.67-4.89-4.48-6.87-9.7-6.79c-15.48,0.24-30.96,0.22-46.44,0.02c-5.1-0.07-8.08,1.63-9.81,6.63
				c-4.13,11.93-8.97,23.63-12.98,35.6c-1.85,5.52-4.67,7.7-10.58,7.71c-18.68,0.04-18.3,0.4-11.36-17.47
				c12.22-31.48,23.9-63.16,35.85-94.74c5.38-14.22,10.83-28.42,16.31-42.6C114.36,200.89,114.39,200.9,127.21,200.92z
				 M127.21,235.7c-0.64,0.01-1.28,0.02-1.91,0.02c-6.98,18.98-14.03,37.94-20.9,56.96c-1.43,3.97,1.61,4.12,4.35,4.12
				c11.32,0.01,22.65-0.1,33.97,0.05c5.21,0.07,5.39-2.45,4.01-6.37c-2.73-7.76-5.28-15.59-8.05-23.34
				C134.93,256.65,131.04,246.19,127.21,235.7z"/>
			<path class="st2" d="M641.47,367.18c-17.81,0-35.61-0.17-53.42,0.09c-6.4,0.09-8.45-2.54-8.78-8.7
				c-0.47-8.7,1.81-15.89,7.2-22.86c27.29-35.29,54.25-70.84,81.33-106.3c1.08-1.41,3.03-2.79,2.31-4.6
				c-0.97-2.43-3.61-1.41-5.52-1.42c-25.29-0.07-50.58-0.24-75.87,0.08c-6.38,0.08-9.18-1.76-8.33-8.24c0.2-1.52,0.19-3.11,0-4.64
				c-0.92-7.38,2.18-9.88,9.63-9.81c33.8,0.3,67.61,0.26,101.42,0.02c6.66-0.05,9.01,2.17,9.14,8.92c0.16,8.88-1.87,16.12-7.5,23.46
				c-26.85,35-53.07,70.48-79.46,105.84c-1.13,1.52-3.66,3.12-2.11,5.2c0.75,1.01,3.32,0.91,5.07,0.91
				c25.03,0.05,50.06-0.01,75.09,0.1c3.69,0.02,8.66-1.57,10.52,2.69c2.28,5.22,1.94,11.21,0.17,16.66
				c-1.08,3.31-4.73,2.55-7.47,2.56C677.08,367.21,659.28,367.18,641.47,367.18z"/>
			<path class="st2" d="M563.98,314.91c0.35,15.2-0.96,30.48,1.87,45.56c0.97,5.2-1.02,7.22-6.1,6.88
				c-2.31-0.15-4.67-0.26-6.96,0.02c-6.7,0.82-10.4-1.94-10.71-8.72c-0.35-7.69-3.14-5.57-7.18-2.22
				c-17.28,14.32-42.99,16.68-60.76,6.11c-12.14-7.22-17.54-18.23-16.98-31.72c0.6-14.7,8.56-25.24,22.04-31.05
				c15.88-6.85,32.73-8.97,49.91-9.19c9.59-0.12,10.13-0.85,9.94-10.25c-0.27-13.93-4.75-21.44-14.64-24.59
				c-13.79-4.39-26.73-0.9-34.24,9.78c-2.46,3.5-4.8,4.24-8.36,2.32c-0.91-0.49-1.87-0.87-2.81-1.3
				c-13.61-6.14-13.86-7.58-2.98-18.48c4.47-4.48,9.97-7.8,15.91-9.25c19.35-4.74,38.48-4.74,55.91,6.62
				c9.55,6.22,13.16,16.18,14.84,26.97C564.87,286.52,563.34,300.75,563.98,314.91z M539.17,316.21c-1.45-2.97,2.62-10.77-3.8-9.86
				c-15.13,2.13-30.89,2.99-44.53,11.27c-5.68,3.45-9.08,8.63-8.34,15.42c0.75,6.94,4.89,11.63,11.42,14.28
				C515.95,356.26,538.74,340.93,539.17,316.21z"/>
			<path class="st2" d="M1288.7,310.14c0.22,17.01-0.29,34.06,2.4,50.94c0.72,4.51-1.18,6.23-5.4,6.21c-2.84-0.01-5.71-0.26-8.5,0.1
				c-6.61,0.85-9.73-2.29-10.06-8.51c-0.4-7.47-3.41-5.69-7.3-2.39c-15.8,13.44-33.75,15.59-52.94,9.34
				c-15.1-4.91-24.52-17.44-24.9-32.04c-0.4-15.24,8.32-28.36,23.1-34.35c15.01-6.08,30.72-8.5,46.86-8.78
				c13.39-0.23,13.6-0.63,12.07-13.75c-1.51-12.9-6.47-19.32-16.99-21.97c-13.06-3.29-25.05,0.24-31.56,10
				c-2.57,3.86-5.01,4.74-8.85,2.58c-0.45-0.25-0.94-0.42-1.42-0.61c-14.49-5.69-15.18-9.43-2.96-19.77
				c4.9-4.15,10.47-7.81,16.89-9.12c13.8-2.8,27.77-3.29,41.28,1.17c18.51,6.11,27.8,19.87,28.25,40.77
				C1288.88,290.02,1288.7,300.08,1288.7,310.14z M1228.35,349.51c21.91,0.01,34.24-11.12,36.4-30.99
				c1.4-12.81,0.62-13.82-11.55-11.34c-11.77,2.4-24,3.03-34.93,8.96c-6.98,3.78-11.51,9.22-10.71,17.16
				c0.8,7.86,5.96,12.88,13.76,14.8C1224.3,348.84,1227.33,349.31,1228.35,349.51z"/>
			<path class="st2" d="M777.04,306.96c-12.38,0.01-24.77,0.05-37.15-0.01c-4.03-0.02-7.19,0.5-7.01,5.74
				c0.78,22.39,14.15,40.83,39.28,38.55c7.59-0.69,13.6-4.28,18.85-9.6c3.91-3.96,19.24-4.01,22.95-0.17
				c2.62,2.71,0.16,4.73-1.29,6.69c-12.17,16.49-29.39,22.81-48.84,21.23c-34.94-2.84-53.42-23.4-54.96-58.76
				c-0.51-11.61-1.06-23.26,2.59-34.45c9.38-28.76,31.75-42.4,64.4-39.67c21.77,1.82,41.23,22.53,44.93,48.7
				c3.79,26.81,2.67,21.23-18.2,21.7C794.07,307.12,785.56,306.95,777.04,306.96z M764.38,290.47c8.51,0,17.03-0.07,25.54,0.03
				c4.17,0.05,6.02-1.54,6.07-5.93c0.14-11.98-8.61-24.83-19.92-28.73c-20.37-7.02-37.22,4.26-41.87,27.67
				c-1.02,5.12-0.08,7.2,5.41,7.03C747.87,290.28,756.13,290.47,764.38,290.47z"/>
			<path class="st2" d="M1015.42,306.96c-12.37,0.01-24.75,0.02-37.12,0.01c-3.52,0-7.04,0.09-7.07,4.93
				c-0.08,13.97,4.33,26.16,16.25,34.07c11.45,7.6,23.73,7.65,35.82,0.77c0.89-0.51,2.05-0.94,2.52-1.74
				c5.49-9.35,13.5-6.67,21.68-5.1c6.49,1.25,7.21,3.37,3.29,8.47c-12.24,15.93-28.95,22.2-48.21,21.12
				c-36.57-2.06-52.77-24.1-56.11-58.97c-2.18-22.75,2.04-44.16,20.02-60.8c23.43-21.68,75.55-21.51,89.51,24.26
				c2.33,7.64,3.39,15.54,3.97,23.57c0.56,7.73-2.53,9.82-9.76,9.53C1038.64,306.61,1027.02,306.95,1015.42,306.96z M1003.62,290.48
				c8.75,0,17.49-0.03,26.24,0.01c2.9,0.01,5.22-0.41,4.72-4.19c-1.12-8.53-3.04-16.87-9.23-23.22c-9.48-9.72-21.12-11.11-33.48-6.9
				c-10.06,3.42-19.68,18.03-20.14,29.07c-0.18,4.34,2.01,5.26,5.65,5.23C986.13,290.41,994.88,290.46,1003.62,290.48z"/>
			<path class="st2" d="M856.39,254.13c12.45-12.97,26.57-19.39,43.76-16.48c22.71,3.85,36.06,18.35,36.85,41.96
				c0.89,26.8,0.25,53.66,0.37,80.49c0.02,4.81-1.93,6.84-6.86,7.15c-16.56,1.06-16.83,0.93-16.83-15.75
				c0.01-21.16,0.03-42.31-0.01-63.47c-0.02-16.61-4.83-23.83-18.17-27.48c-13.97-3.83-28.43,1.65-35.72,13.46
				c-3.35,5.43-4.75,11.26-4.71,17.66c0.14,21.93,0.08,43.86,0.02,65.79c-0.02,9.41-0.46,9.71-11.19,9.74
				c-11.73,0.03-12.1-0.17-12.11-9.55c-0.05-35.09-0.03-70.18-0.02-105.27c0-6.13-1.35-12.66,8.69-12.56
				c13.57,0.13,13.7-0.21,14.79,11.22C855.33,251.74,855.75,252.41,856.39,254.13z"/>
			<path class="st2" d="M251.87,236.4c17.47-1.2,31.97,4.01,43.03,17.39c4.81,5.82,4.26,7.59-2.72,10.41
				c-2.15,0.87-4.43,1.53-6.42,2.69c-4.74,2.77-7.93,2.19-11.75-2.4c-8.43-10.13-24.3-13.37-36.09-8.27
				c-6.34,2.74-10.92,7.25-11.01,14.53c-0.08,6.87,4.74,10.56,10.43,13.08c7.34,3.26,15.05,5.5,22.97,6.69
				c9.03,1.36,17.54,4.19,25.81,7.89c23.28,10.41,28.11,38.34,10.01,56.31c-20.1,19.96-72.36,19.46-89.77-3.7
				c-1.96-2.61-5.37-4.99-3.88-8.65c1.34-3.29,5.35-2.48,8.21-3.28c7.81-2.16,14.12-1.39,20.77,5.11c9.61,9.4,33.3,9.09,44.6,1.29
				c9.45-6.52,8.93-20.77-1.2-26.64c-8.58-4.97-18.14-7.33-27.84-8.98c-8.45-1.43-16.53-3.93-24.41-7.28
				c-12.17-5.17-18.94-14.5-19.39-27.42c-0.46-13.18,4.91-24.01,16.48-31.3C229.73,237.56,240.66,235.48,251.87,236.4z"/>
			<path class="st2" d="M1093.52,303.27c-0.35,11,1.44,21.81,7.33,31.69c11.72,19.63,39.6,22.22,53.83,4.54
				c4.7-5.85,8.77-2.26,12.97-0.82c11.19,3.83,11.96,5.94,3.6,14.33c-15.77,15.83-35.39,19.22-56.54,15.01
				c-26.55-5.29-45.03-27.48-46.41-54.63c-1.05-20.51,1.07-39.81,14.06-57.22c20-26.79,69.33-26.08,89.89-3.11
				c6.28,7.02,6.01,8.91-2.3,12.53c-2.36,1.03-4.74,2.06-7.03,3.23c-3.5,1.78-6.13,1.52-8.51-2.13
				c-8.46-12.97-21.27-14.71-34.92-12.07c-13.22,2.56-19.39,12.83-23.2,24.61C1093.81,286.9,1093.23,294.91,1093.52,303.27z"/>
			<path class="st2" d="M328.54,305.83c0-12.63-0.15-25.26,0.07-37.88c0.1-5.62-2.08-7.74-7.73-7.79
				c-10.37-0.09-14.49-6.71-10.82-16.46c1.58-4.21,5.29-3.91,8.44-3.61c7.8,0.73,11.11-2.44,10.08-10.2
				c-0.13-1.01-0.02-2.06-0.02-3.09c0.02-16.97,2.97-20.44,19.77-24.19c4.38-0.98,4.92,1.36,4.94,4.53
				c0.07,8.25,0.28,16.5-0.01,24.73c-0.21,6.03,2.26,8.63,8.2,8.09c0.77-0.07,1.55,0,2.32,0c11.32,0.11,14.93,5.43,11.37,16.48
				c-1.44,4.46-5.1,3.74-8.29,3.74c-14.34,0.02-13.53-0.89-13.54,14.22c-0.01,20.61-0.07,41.23,0.04,61.84
				c0.07,12.48,2.82,14.73,14.97,11.82c5.49-1.32,7.37-0.16,7.26,5.75c-0.23,12.11-0.28,12.49-12.24,13.59
				c-28.38,2.61-34.74-3.13-34.77-31.44c-0.01-10.05,0-20.1,0-30.15C328.56,305.83,328.55,305.83,328.54,305.83z"/>
			<path class="st2" d="M416.15,258.01c9.52-12.08,20.59-17.48,33.53-19.54c6.25-0.99,9.46,1.19,8.92,7.82
				c-0.06,0.77,0,1.55,0.01,2.32c0.11,13.48,0.11,13.48-13.4,14.6c-16.43,1.36-26.25,10.12-28.37,26.43
				c-2.87,22.08-0.54,44.32-1.32,66.47c-0.13,3.62,1.82,8.8-2.94,10.24c-5.85,1.76-12.28,1.81-18.24-0.23
				c-2.44-0.84-2.23-3.86-2.23-6.17c-0.03-37.41,0.03-74.82-0.06-112.23c-0.01-5.64,2.47-8.05,7.96-7.74
				c1.8,0.1,3.63,0.15,5.41-0.03c7.63-0.78,11.15,2.35,10.22,10.21C415.41,252.1,415.87,254.12,416.15,258.01z"/>
		</g>
	</g>
</g>
</svg>
