<?xml version="1.0" encoding="utf-8"?>
<!-- Generator: Adobe Illustrator 23.0.0, SVG Export Plug-In . SVG Version: 6.00 Build 0)  -->
<svg version="1.1" id="Layer_1" xmlns="http://www.w3.org/2000/svg" xmlns:xlink="http://www.w3.org/1999/xlink" x="0px" y="0px"
	 viewBox="0 0 753.3 145.9" style="enable-background:new 0 0 753.3 145.9;" xml:space="preserve">
<style type="text/css">
	.st0{fill:#FFFFFF;}
</style>
<g>
	<path class="st0" d="M24.7,115.3H0L37.7,6.2h29.7L105,115.3H80.3L52.9,31.2h-0.8L24.7,115.3z M23.2,72.4h58.4v18H23.2V72.4z"/>
	<path class="st0" d="M121.4,145.8c-2.9,0-5.6-0.2-8.1-0.7c-2.5-0.4-4.6-1-6.2-1.6l5.1-17c4,1.2,7.4,1.6,10.2,1
		c2.8-0.6,4.9-2.7,6.5-6.4l1.3-3.5l-29.3-84.2h23.9l16.9,60.1h0.9l17.1-60.1l24,0.1l-31.8,90.6c-1.5,4.4-3.6,8.2-6.2,11.4
		c-2.6,3.3-5.9,5.8-9.9,7.6C131.8,144.9,127.1,145.8,121.4,145.8z"/>
	<path class="st0" d="M229.6,116.9c-8.3,0-15.4-1.8-21.4-5.3c-6-3.5-10.7-8.5-13.9-14.8c-3.3-6.3-4.9-13.7-4.9-22.1
		c0-8.4,1.6-15.8,4.9-22.2c3.3-6.3,7.9-11.3,13.9-14.8c6-3.5,13.2-5.3,21.4-5.3s15.4,1.8,21.4,5.3c6,3.5,10.7,8.5,13.9,14.8
		c3.3,6.3,4.9,13.7,4.9,22.2c0,8.4-1.6,15.7-4.9,22.1s-7.9,11.3-13.9,14.8C245,115.2,237.9,116.9,229.6,116.9z M229.7,99.3
		c3.8,0,6.9-1.1,9.4-3.2s4.4-5.1,5.7-8.8c1.3-3.7,1.9-8,1.9-12.7c0-4.8-0.6-9-1.9-12.7c-1.3-3.7-3.2-6.7-5.7-8.8
		c-2.5-2.2-5.7-3.3-9.4-3.3c-3.8,0-7,1.1-9.6,3.3c-2.6,2.2-4.5,5.1-5.8,8.8c-1.3,3.7-1.9,8-1.9,12.7s0.6,9,1.9,12.7
		c1.3,3.7,3.2,6.7,5.8,8.8C222.7,98.3,225.9,99.3,229.7,99.3z"/>
	<path class="st0" d="M295.5,6.2l26.4,82.9h1l26.4-82.9h25.6l-37.6,109.1h-29.7L269.9,6.2H295.5z"/>
	<path class="st0" d="M401.8,116.9c-5.2,0-9.9-0.9-14-2.7c-4.1-1.8-7.3-4.5-9.7-8.2c-2.4-3.6-3.5-8.1-3.5-13.5
		c0-4.5,0.8-8.4,2.5-11.4s3.9-5.6,6.8-7.5c2.9-1.9,6.1-3.3,9.8-4.3c3.7-1,7.5-1.6,11.6-2c4.8-0.5,8.6-1,11.5-1.4
		c2.9-0.4,5-1.1,6.3-2c1.3-0.9,2-2.2,2-3.9v-0.3c0-3.4-1.1-6-3.2-7.8c-2.1-1.8-5.1-2.8-9-2.8c-4.1,0-7.3,0.9-9.8,2.7
		c-2.4,1.8-4,4-4.8,6.7l-21-1.7c1.1-5,3.2-9.3,6.3-12.9c3.1-3.6,7.2-6.4,12.1-8.4c5-2,10.7-3,17.2-3c4.5,0,8.9,0.5,13.1,1.6
		c4.2,1.1,7.9,2.7,11.1,5c3.3,2.2,5.8,5.1,7.7,8.6c1.9,3.5,2.8,7.7,2.8,12.5v55.2h-21.5V104h-0.6c-1.3,2.6-3.1,4.8-5.3,6.7
		c-2.2,1.9-4.9,3.4-7.9,4.5C409.4,116.3,405.8,116.9,401.8,116.9z M408.3,101.2c3.3,0,6.3-0.7,8.8-2s4.6-3.1,6-5.4s2.2-4.8,2.2-7.7
		v-8.7c-0.7,0.5-1.7,0.9-2.9,1.3s-2.6,0.7-4.1,1s-3,0.6-4.6,0.8s-2.9,0.4-4.2,0.6c-2.7,0.4-5,1-7,1.9c-2,0.8-3.5,2-4.6,3.4
		s-1.6,3.2-1.6,5.3c0,3.1,1.1,5.4,3.4,7.1C401.9,100.4,404.8,101.2,408.3,101.2z"/>
	<path class="st0" d="M465.5,115.3V6.2h22.7v109.1L465.5,115.3L465.5,115.3z M486.1,91.8l0-27.2h3.3l26.2-31h26l-35.2,41.1h-5.4
		L486.1,91.8z M516.6,115.3l-24.1-35.6l15.1-16l35.5,51.7H516.6z"/>
	<path class="st0" d="M620.8,56.8l-20.8,1.3c-0.4-1.8-1.1-3.4-2.3-4.8c-1.2-1.4-2.7-2.6-4.6-3.5c-1.9-0.9-4.2-1.3-6.8-1.3
		c-3.5,0-6.5,0.7-8.9,2.2c-2.4,1.5-3.6,3.4-3.6,5.9c0,2,0.8,3.6,2.3,5c1.6,1.3,4.2,2.4,8,3.3l14.8,3c8,1.6,13.9,4.3,17.8,7.9
		c3.9,3.6,5.9,8.4,5.9,14.3c0,5.4-1.6,10.1-4.7,14.1s-7.4,7.2-12.9,9.4c-5.5,2.3-11.7,3.4-18.8,3.4c-10.8,0-19.5-2.3-25.9-6.8
		s-10.2-10.7-11.3-18.5l22.3-1.2c0.7,3.3,2.3,5.8,4.9,7.5s5.9,2.6,10,2.6c4,0,7.2-0.8,9.6-2.3c2.4-1.5,3.7-3.5,3.7-6
		c0-2.1-0.9-3.8-2.6-5.1s-4.3-2.3-7.9-3.1L575,81.3c-8-1.6-13.9-4.4-17.8-8.3c-3.9-3.9-5.8-9-5.8-15.1c0-5.3,1.4-9.8,4.3-13.6
		c2.9-3.8,6.9-6.7,12.1-8.8c5.2-2.1,11.3-3.1,18.3-3.1c10.3,0,18.5,2.2,24.4,6.5C616.4,43.4,619.8,49.3,620.8,56.8z"/>
	<path class="st0" d="M648.5,23c-3.4,0-6.3-1.1-8.7-3.4c-2.4-2.3-3.6-5-3.6-8.1c0-3.1,1.2-5.8,3.6-8.1c2.4-2.3,5.3-3.4,8.6-3.4
		c3.4,0,6.3,1.1,8.7,3.4c2.4,2.3,3.6,4.9,3.6,8.1c0,3.2-1.2,5.9-3.6,8.1C654.7,21.8,651.8,23,648.5,23z M637,115.3V33.5h22.7v81.8
		C659.7,115.3,637,115.3,637,115.3z"/>
	<path class="st0" d="M700.5,68v47.3h-22.7V33.5h21.6v14.4h1c1.8-4.8,4.8-8.5,9.1-11.3s9.4-4.2,15.5-4.2c5.7,0,10.6,1.2,14.9,3.7
		s7.5,6,9.8,10.6c2.3,4.6,3.5,10.1,3.5,16.4v52.1h-22.7V67.3c0-5-1.2-8.9-3.8-11.8c-2.6-2.8-6.2-4.2-10.7-4.2c-3,0-5.8,0.7-8.1,2
		c-2.3,1.3-4.1,3.2-5.4,5.7C701.2,61.5,700.5,64.5,700.5,68z"/>
</g>
</svg>
