<?xml version="1.0" encoding="utf-8"?>
<!-- Generator: Adobe Illustrator 23.0.5, SVG Export Plug-In . SVG Version: 6.00 Build 0)  -->
<svg version="1.1" id="Layer_1" xmlns="http://www.w3.org/2000/svg" xmlns:xlink="http://www.w3.org/1999/xlink" x="0px" y="0px"
	 viewBox="0 0 753.25 145.85" style="enable-background:new 0 0 753.25 145.85;" xml:space="preserve">
<style type="text/css">
	.st0{fill:#252C5D;}
	.st1{fill:#2656BE;}
</style>
<g>
	<path class="st0" d="M22.11,113.73H-2.61L35.05,4.63h29.72l37.61,109.09H77.66L50.34,29.56h-0.85L22.11,113.73z M20.56,70.85h58.38
		v18H20.56V70.85z"/>
	<path class="st0" d="M118.84,144.25c-2.88,0-5.57-0.22-8.07-0.67c-2.5-0.44-4.57-0.98-6.21-1.62l5.11-16.99
		c4.01,1.24,7.39,1.57,10.15,0.99c2.75-0.59,4.93-2.73,6.52-6.42l1.33-3.46L98.33,31.91h23.86l16.94,60.09h0.85l17.1-60.09
		l24.02,0.11l-31.8,90.55c-1.53,4.37-3.59,8.18-6.21,11.43c-2.61,3.25-5.9,5.77-9.88,7.56
		C129.24,143.35,124.45,144.25,118.84,144.25z"/>
	<path class="st0" d="M226.97,115.32c-8.27,0-15.42-1.77-21.44-5.3c-6.02-3.53-10.66-8.47-13.93-14.81
		c-3.27-6.34-4.9-13.7-4.9-22.08c0-8.45,1.63-15.85,4.9-22.19c3.27-6.34,7.91-11.27,13.93-14.81c6.02-3.53,13.17-5.3,21.44-5.3
		s15.42,1.77,21.44,5.3c6.02,3.53,10.66,8.47,13.93,14.81c3.27,6.34,4.9,13.73,4.9,22.19c0,8.38-1.63,15.74-4.9,22.08
		c-3.27,6.34-7.91,11.27-13.93,14.81C242.39,113.56,235.25,115.32,226.97,115.32z M227.08,97.74c3.76,0,6.91-1.07,9.43-3.22
		c2.52-2.15,4.43-5.09,5.73-8.82c1.3-3.73,1.94-7.97,1.94-12.73c0-4.76-0.65-9-1.94-12.73c-1.3-3.73-3.21-6.68-5.73-8.84
		c-2.52-2.17-5.67-3.25-9.43-3.25c-3.8,0-6.99,1.08-9.56,3.25c-2.57,2.17-4.51,5.11-5.81,8.84c-1.3,3.73-1.94,7.97-1.94,12.73
		c0,4.76,0.65,9,1.94,12.73c1.3,3.73,3.23,6.67,5.81,8.82C220.09,96.67,223.28,97.74,227.08,97.74z"/>
	<path class="st1" d="M292.87,4.63l26.37,82.88h1.01l26.42-82.88h25.57l-37.61,109.09H304.9L267.25,4.63H292.87z"/>
	<path class="st1" d="M399.19,115.27c-5.22,0-9.87-0.92-13.96-2.74c-4.08-1.83-7.31-4.54-9.67-8.15c-2.36-3.6-3.54-8.11-3.54-13.5
		c0-4.54,0.83-8.36,2.5-11.45c1.67-3.09,3.94-5.57,6.82-7.46c2.88-1.88,6.15-3.3,9.83-4.26c3.67-0.96,7.54-1.63,11.58-2.02
		c4.76-0.5,8.59-0.97,11.51-1.41c2.91-0.44,5.02-1.11,6.34-2c1.31-0.89,1.97-2.2,1.97-3.94v-0.32c0-3.37-1.06-5.98-3.17-7.83
		c-2.11-1.85-5.11-2.77-8.98-2.77c-4.08,0-7.33,0.9-9.75,2.69c-2.42,1.79-4.01,4.04-4.79,6.74l-20.99-1.7
		c1.07-4.97,3.16-9.28,6.29-12.92c3.13-3.64,7.17-6.45,12.12-8.42c4.95-1.97,10.7-2.96,17.23-2.96c4.54,0,8.9,0.53,13.08,1.6
		c4.17,1.07,7.88,2.72,11.13,4.95c3.25,2.24,5.81,5.1,7.7,8.6c1.88,3.5,2.82,7.68,2.82,12.54v55.18h-21.52v-11.35h-0.64
		c-1.31,2.56-3.07,4.8-5.27,6.74c-2.2,1.94-4.85,3.45-7.94,4.53C406.8,114.73,403.24,115.27,399.19,115.27z M405.69,99.61
		c3.34,0,6.29-0.67,8.84-2s4.56-3.13,6.02-5.41s2.18-4.85,2.18-7.72V75.8c-0.71,0.46-1.68,0.88-2.9,1.25s-2.6,0.71-4.13,1.01
		c-1.53,0.3-3.05,0.57-4.58,0.8c-1.53,0.23-2.91,0.44-4.16,0.61c-2.66,0.39-4.99,1.01-6.98,1.86c-1.99,0.85-3.53,2-4.63,3.44
		c-1.1,1.44-1.65,3.22-1.65,5.35c0,3.09,1.13,5.44,3.38,7.06C399.34,98.8,402.21,99.61,405.69,99.61z"/>
	<path class="st1" d="M462.89,113.73V4.63h22.69v109.09H462.89z M483.45,90.18l0.05-27.22h3.3l26.21-31.05h26.05l-35.21,41.12h-5.38
		L483.45,90.18z M514.03,113.73l-24.08-35.64l15.13-16.03l35.53,51.67H514.03z"/>
	<path class="st1" d="M618.22,55.24l-20.77,1.28c-0.36-1.77-1.12-3.38-2.29-4.82c-1.17-1.44-2.71-2.59-4.61-3.46
		c-1.9-0.87-4.16-1.31-6.79-1.31c-3.52,0-6.48,0.74-8.9,2.21c-2.42,1.47-3.62,3.44-3.62,5.89c0,1.95,0.78,3.6,2.34,4.95
		c1.56,1.35,4.24,2.43,8.04,3.25l14.81,2.98c7.95,1.63,13.88,4.26,17.79,7.88c3.91,3.62,5.86,8.38,5.86,14.28
		c0,5.36-1.57,10.07-4.71,14.12c-3.14,4.05-7.44,7.2-12.89,9.45c-5.45,2.26-11.73,3.38-18.83,3.38c-10.83,0-19.45-2.26-25.86-6.79
		c-6.41-4.53-10.17-10.7-11.27-18.51l22.32-1.17c0.67,3.3,2.31,5.81,4.9,7.54s5.91,2.58,9.96,2.58c3.98,0,7.18-0.77,9.62-2.32
		c2.43-1.54,3.67-3.54,3.7-5.99c-0.04-2.06-0.91-3.76-2.61-5.09c-1.7-1.33-4.33-2.35-7.88-3.06l-14.17-2.82
		c-7.99-1.6-13.93-4.37-17.82-8.31c-3.89-3.94-5.83-8.97-5.83-15.07c0-5.25,1.43-9.78,4.29-13.58c2.86-3.8,6.89-6.73,12.09-8.79
		c5.2-2.06,11.3-3.09,18.3-3.09c10.33,0,18.47,2.18,24.42,6.55C613.75,41.76,617.22,47.71,618.22,55.24z"/>
	<path class="st1" d="M645.86,21.36c-3.37,0-6.27-1.13-8.68-3.38c-2.42-2.25-3.62-4.96-3.62-8.12c0-3.12,1.21-5.81,3.62-8.07
		c2.42-2.25,5.29-3.38,8.63-3.38c3.41,0,6.31,1.13,8.71,3.38c2.4,2.26,3.59,4.95,3.59,8.07c0,3.16-1.2,5.87-3.59,8.12
		C652.12,20.23,649.24,21.36,645.86,21.36z M634.41,113.73V31.91h22.69v81.82H634.41z"/>
	<path class="st1" d="M697.9,66.42v47.3h-22.69V31.91h21.63v14.44h0.96c1.81-4.76,4.85-8.53,9.11-11.32
		c4.26-2.79,9.43-4.18,15.5-4.18c5.68,0,10.63,1.24,14.86,3.73c4.23,2.49,7.51,6.03,9.85,10.63c2.34,4.6,3.52,10.08,3.52,16.43v52.1
		h-22.69V65.68c0.04-5.01-1.24-8.92-3.84-11.75c-2.59-2.82-6.16-4.23-10.71-4.23c-3.05,0-5.75,0.66-8.07,1.97
		c-2.33,1.31-4.14,3.22-5.43,5.73C698.6,59.9,697.94,62.91,697.9,66.42z"/>
</g>
</svg>
