<?xml version="1.0" encoding="utf-8"?>
<!-- Generator: Adobe Illustrator 23.0.0, SVG Export Plug-In . SVG Version: 6.00 Build 0)  -->
<svg version="1.1" id="Layer_1" xmlns="http://www.w3.org/2000/svg" xmlns:xlink="http://www.w3.org/1999/xlink" x="0px" y="0px"
	 viewBox="0 0 1515 480" style="enable-background:new 0 0 1515 480;" xml:space="preserve">
<style type="text/css">
	.st0{clip-path:url(#SVGID_2_);}
	.st1{fill:url(#SVGID_3_);}
	.st2{fill:#B7B8BC;}
</style>
<g>
	<defs>
		<rect id="SVGID_1_" x="0.18" width="1514.64" height="480"/>
	</defs>
	<clipPath id="SVGID_2_">
		<use xlink:href="#SVGID_1_"  style="overflow:visible;"/>
	</clipPath>
	<g class="st0">
		<linearGradient id="SVGID_3_" gradientUnits="userSpaceOnUse" x1="33.7522" y1="396.9746" x2="1445.943" y2="396.9746">
			<stop  offset="0" style="stop-color:#D0D1D8"/>
			<stop  offset="1" style="stop-color:#B7B8BC"/>
		</linearGradient>
		<path class="st1" d="M1397.91,388.11c12.77,0,25.55-0.06,38.32,0.02c6.73,0.05,9.69,2.84,9.72,8.74c0.02,5.63-3.29,8.9-9.72,8.92
			c-25.55,0.09-51.09,0.09-76.64,0c-6.4-0.02-9.77-3.33-9.76-8.92c0.01-5.82,3.08-8.69,9.76-8.73
			C1372.36,388.05,1385.13,388.11,1397.91,388.11z M1240.11,388.17c-6.09,0.07-9.05,3.26-8.89,8.86c0.17,5.71,3.06,8.73,9.1,8.76
			c25.72,0.09,51.45,0.09,77.17,0.01c6.62-0.02,9.47-2.95,9.43-8.98c-0.04-6.08-2.71-8.62-9.64-8.68
			c-12.55-0.1-25.1-0.03-37.65-0.02C1266.46,388.13,1253.28,388.03,1240.11,388.17z M919.22,388.15c-12.78,0-25.55-0.08-38.33,0.03
			c-6.58,0.06-9.69,3.17-9.47,8.96c0.23,5.96,3.29,8.63,10.62,8.66c24.92,0.08,49.84,0.07,74.77,0.02
			c7.36-0.01,10.26-2.61,10.28-8.77c0.02-6.19-2.91-8.86-10.18-8.9c-12.57-0.08-25.13-0.02-37.7-0.02
			C919.22,388.13,919.22,388.14,919.22,388.15z M1000.1,388.14c-6.89,0.04-9.86,2.64-10.05,8.44c-0.19,5.79,3.34,9.19,10.11,9.21
			c25.36,0.08,50.71,0.09,76.07-0.01c6.98-0.03,9.24-2.43,9.29-8.97c0.05-6.56-2.06-8.63-9.34-8.68
			c-12.57-0.09-25.15-0.02-37.72-0.02C1025.67,388.12,1012.88,388.07,1000.1,388.14z M1122.18,388.14c-7.24,0.04-9.47,2.2-9.41,8.62
			c0.05,6.29,2.65,9.01,9.39,9.03c25.36,0.09,50.71,0.09,76.07,0c6.68-0.02,10.2-3.43,10.17-9.27c-0.03-5.48-3.37-8.35-10.14-8.39
			c-12.57-0.07-25.15-0.02-37.72-0.02C1147.75,388.12,1134.96,388.06,1122.18,388.14z M715.9,405.77c7.16-0.06,9.82-2.73,9.76-9.27
			c-0.05-6.22-2.31-8.27-9.83-8.29c-25.13-0.07-50.25-0.05-75.38,0.01c-6.98,0.01-10.02,2.65-10.03,8.34
			c-0.01,6.07,3.2,9.14,10.1,9.2c12.56,0.11,25.13,0.03,37.69,0.04C690.78,405.8,703.34,405.88,715.9,405.77z M560.12,388.24
			c-12.99,0-25.98-0.08-38.97,0.03c-6.46,0.05-9.38,2.8-9.41,8.34c-0.04,6.19,3.05,9.05,10.88,9.09
			c24.93,0.14,49.86,0.13,74.79,0.02c6.61-0.03,9.63-3.07,9.69-8.94c0.06-5.63-3.14-8.5-9.91-8.54
			c-12.36-0.08-24.72-0.02-37.08-0.02C560.12,388.23,560.12,388.24,560.12,388.24z M801.04,388.18c-12.97,0-25.94-0.09-38.91,0.04
			c-6.84,0.07-9.08,2.32-9.1,8.36c-0.01,6.34,2.55,9.15,9.2,9.17c25.52,0.1,51.05,0.11,76.57,0c6.7-0.03,9.01-2.68,8.93-9.28
			c-0.07-6.25-2.11-8.25-9.03-8.3c-12.55-0.09-25.11-0.03-37.66-0.03C801.04,388.17,801.04,388.18,801.04,388.18z M199.53,404.71
			c12.77,0,25.53,0.06,38.3-0.03c6.18-0.04,9.24-2.71,9.3-7.69c0.07-5.45-3-8.49-9.27-8.61c-9.2-0.17-18.41-0.07-27.62-0.07
			c-16.32,0.01-32.65-0.07-48.97,0.11c-6.16,0.07-9.29,3.3-9.18,8.73c0.12,6.03,3.7,7.66,9.15,7.59c12.76-0.17,25.53-0.05,38.3-0.05
			C199.53,404.69,199.53,404.7,199.53,404.71z M441.07,404.8c12.58,0,25.15-0.09,37.73,0.04c5.39,0.05,9.03-1.44,9.05-7.64
			c0.02-6.1-2.33-8.86-8.7-8.89c-25.78-0.1-51.56-0.03-77.34-0.02c-5.7,0-8.47,2.84-8.43,8.55c0.04,5.85,2.05,7.85,8.71,7.9
			c12.99,0.09,25.99,0.03,38.98,0.03C441.07,404.78,441.07,404.79,441.07,404.8z M318.24,404.75c12.97,0,25.94,0.06,38.91-0.03
			c6.22-0.04,8.58-2.42,8.59-8.13c0.01-5.6-2.46-8.24-8.64-8.26c-25.73-0.1-51.46-0.09-77.18,0.03c-6.27,0.03-8.65,2.91-8.55,8.99
			c0.09,5.81,3.43,7.44,8.6,7.39c12.76-0.1,25.52-0.03,38.28-0.03C318.24,404.73,318.24,404.74,318.24,404.75z M80.62,404.67
			c12.78,0,25.55-0.12,38.33,0.06c5.58,0.08,8.86-1.86,8.96-7.81c0.09-5.46-2.6-8.48-8.52-8.51c-25.76-0.11-51.52-0.11-77.28,0.03
			c-5.83,0.03-8.52,3.19-8.35,8.67c0.17,5.56,3.16,7.64,8.53,7.57c12.77-0.15,25.55-0.05,38.33-0.05
			C80.62,404.64,80.62,404.66,80.62,404.67z"/>
		<g>
			<path class="st2" d="M59.34,168.7c14.81-19.49,34.22-30.44,58.44-29.14c24.51,1.31,42.08,13.99,51.14,38.53
				c3.56-4.73,6.16-8.71,9.28-12.24c18.25-20.67,40.42-31.09,68.29-24.36c21.89,5.29,34.76,20.01,40.14,41.48
				c2.86,11.42,3.91,23.08,3.86,34.89c-0.14,29.76-0.01,59.52-0.02,89.28c0,8.96-0.44,9.42-9.03,9.45
				c-17.46,0.04-15.17,0.84-15.23-15.18c-0.09-27.25,0.06-54.49-0.09-81.74c-0.04-7.53-0.49-15.09-1.33-22.57
				c-2.74-24.45-20.99-37.63-45.8-33.36c-23.49,4.04-40.47,24.13-43.22,49.85c-3.32,30.95-1.83,61.95-2.22,92.94
				c-0.12,9.94-0.14,10.04-10.31,10.07c-13.83,0.05-13.83,0.05-13.83-13.49c-0.01-28.08,0.09-56.17-0.1-84.25
				c-0.05-7.94-0.58-15.92-1.46-23.81c-2.41-21.63-21.38-35.03-44.1-31.42c-22.17,3.52-39.29,21.07-43.56,44.61
				c-1.65,9.09-2.6,18.23-2.57,27.49c0.09,24.1,0.03,48.2-0.02,72.3c-0.02,7.88-0.67,8.53-8.68,8.55c-17.49,0.05-15.37,1-15.39-15
				c-0.06-49.46-0.03-98.92-0.02-148.38c0-8.98,0.13-9.14,9.18-9.1c16.46,0.08,14.85-1.82,14.92,14.7c0.01,2.89,0,5.78,0,8.67
				C58.17,167.87,58.76,168.28,59.34,168.7z"/>
			<path class="st2" d="M692.17,171.57c2.4-3.5,1.67-6.08,1.68-8.48c0.06-25.37,0.02-50.73,0.05-76.1c0.01-8.15,0.26-8.43,8.59-8.37
				c16.24,0.13,15.4-2.23,15.41,15.02c0,70.65,0,141.29,0,211.94c0,10.68-0.3,10.96-10.85,11c-13.15,0.06-13.07,0.05-13.21-12.87
				c-0.04-3.91,1.77-10.13-0.92-11.23c-3.81-1.56-6.22,4.3-9.24,6.89c-51.01,43.81-128.39,17.6-143.42-48.13
				c-9.55-41.79,7.81-77.81,41.27-99.2c32.5-20.78,76.33-15.93,103.57,11.44C687.53,165.93,689.66,168.69,692.17,171.57z
				 M629.49,163.08c-37.51-0.13-67.15,29.17-67.34,66.56c-0.2,38.05,28.75,68.62,66.13,68.73c34.84,0.1,66.61-25.02,66.91-66.77
				C695.45,192.67,667.17,163.21,629.49,163.08z"/>
			<path class="st2" d="M857.61,233.46c-22.64,0-45.27-0.02-67.91,0.02c-7.09,0.01-7.87,0.96-7.43,8.14
				c1.76,28.8,27.14,54.14,55.82,56.27c29.32,2.18,51.89-8.66,67.13-33.93c3.05-5.06,5.96-5.75,11.15-2.86
				c13.75,7.66,14.01,7.54,5.4,20.48c-16.62,24.99-40.02,37.94-70.04,39.02c-15.04,0.54-29.89-0.53-43.61-7.14
				c-30.06-14.48-46.76-39.33-50.59-71.73c-4.23-35.85,8.59-66.08,38.2-87.04c28.46-20.14,60.05-20.83,90.73-5.73
				c30.7,15.12,45.97,41.66,48.03,75.71c0.48,7.88-0.49,8.74-8.35,8.76C903.3,233.49,880.46,233.45,857.61,233.46z M845.63,212.03
				c18.65,0,37.29,0,55.94,0c3.61,0,7.24-0.04,5.33-5.45c-3.6-10.17-8.05-19.95-16.36-27.16c-32.73-28.41-88.17-21.49-104.09,25.35
				c-2.2,6.48-1.85,7.22,5.14,7.24C809.6,212.07,827.61,212.03,845.63,212.03z"/>
			<path class="st2" d="M1421.17,169.88c0-6.45,0.11-12.91-0.04-19.36c-0.1-4.43,1.56-6.54,6.23-6.48
				c20.94,0.26,17.72-2.33,17.77,16.85c0.14,48.6,0.05,97.2,0.04,145.8c0,9.57-0.29,9.86-9.87,9.88
				c-15.57,0.04-14.09,0.8-14.15-14.4c-0.01-3.32,0-6.64,0-12.24c-26.78,27.89-57.52,37.04-93.05,27.11
				c-21.6-6.03-37.64-20.06-49.24-38.75c-22.6-36.39-17.6-86.55,17.69-117.01c11.84-10.22,25.25-16.83,40.57-20.15
				c15.67-3.39,30.88-1.87,45.82,3.07c14.84,4.91,26.64,14.45,36.59,26.47C1420.07,170.41,1420.62,170.14,1421.17,169.88z
				 M1422.45,230.69c2.05-35.61-29.26-68.65-65.63-67.82c-37.89,0.86-67.43,30.17-67.01,68.34c0.4,36.81,30.01,67.14,65.84,67.27
				C1393.42,298.6,1423.84,269.67,1422.45,230.69z"/>
			<path class="st2" d="M415.9,320.61c-49.93,2.09-90.41-42.46-89.51-90.99c0.93-50.38,40.67-90.56,91.01-90.39
				c49.4,0.17,89.29,41.12,89.27,91.49C506.64,278.99,467.07,323.02,415.9,320.61z M416.7,297.75c37.48-0.04,65.63-28.92,65.6-67.31
				c-0.03-36.76-29.81-67.22-65.72-67.23c-36.3-0.01-65.77,30-65.78,66.97C350.8,268.94,378.93,297.78,416.7,297.75z"/>
			<path class="st2" d="M1102.58,170.05c6.16-5.7,11.16-11.31,17.17-15.8c23.4-17.45,58.23-21.58,83.58-1.37
				c11.24,8.96,18.07,20.77,21.13,34.76c1.66,7.57,3.11,15.16,3.11,23c-0.03,32.7,0.01,65.4,0.27,98.1
				c0.05,5.65-1.84,7.95-7.56,7.89c-18.8-0.17-15.66,1.14-15.78-15.1c-0.16-23.06-0.11-46.12-0.02-69.18
				c0.04-11.13-0.85-22.18-2.24-33.21c-3.62-28.7-26.18-42.21-53.83-35.98c-27.69,6.24-45.74,29.97-46.4,59.84
				c-0.62,27.87-0.31,55.76-0.41,83.64c-0.04,9.6-0.32,9.88-9.86,9.93c-15.16,0.07-15.16,0.07-15.16-15.19
				c0-48.63,0-97.27,0.01-145.9c0-11.21,0.22-11.41,11.07-11.42c13.93-0.02,13.89-0.02,13.97,14.03
				C1101.65,161.62,1101.09,165.2,1102.58,170.05z"/>
			<path class="st2" d="M990.34,165.48c6.05-6.51,10.52-12.32,16.54-16.53c13.02-9.12,26.67-12.78,41.95-5.81
				c3.92,1.79,5.41,3.76,2.49,7.52c-0.38,0.49-0.75,1.02-1.02,1.58c-4.06,8.65-8.67,13.15-20.36,11.57
				c-15.7-2.11-24.81,9.95-31.31,22.86c-5.26,10.46-6.96,21.89-7.58,33.49c-1.55,28.9-1.15,57.82-1.19,86.74
				c-0.01,9.27-0.37,9.64-9.46,9.67c-16.69,0.05-14.79,0.69-14.8-14.37c-0.05-49.89-0.03-99.78-0.01-149.67
				c0-8.12,0.34-8.48,8.57-8.45c17.92,0.07,15.51-1.73,15.71,15.18C989.91,160.7,990.09,162.14,990.34,165.48z"/>
			<path class="st2" d="M1481.56,154.7c0.12,6.5-4.25,11.03-10.81,11.24c-6.81,0.21-11.52-4.33-11.58-11.18
				c-0.05-5.91,5.21-11.1,11.27-11.12C1476.72,143.62,1481.45,148.32,1481.56,154.7z"/>
		</g>
	</g>
</g>
</svg>
