<?xml version="1.0" encoding="utf-8"?>
<!-- Generator: Adobe Illustrator 23.0.0, SVG Export Plug-In . SVG Version: 6.00 Build 0)  -->
<svg version="1.1" id="Layer_1" xmlns="http://www.w3.org/2000/svg" xmlns:xlink="http://www.w3.org/1999/xlink" x="0px" y="0px"
	 viewBox="0 0 1126.5 480" style="enable-background:new 0 0 1126.5 480;" xml:space="preserve">
<style type="text/css">
	.st0{clip-path:url(#SVGID_2_);}
	.st1{fill:#D0D1D8;}
	.st2{fill:#B7B8BC;}
</style>
<g>
	<defs>
		<rect id="SVGID_1_" x="0.08" width="1126.35" height="480"/>
	</defs>
	<clipPath id="SVGID_2_">
		<use xlink:href="#SVGID_1_"  style="overflow:visible;"/>
	</clipPath>
	<g class="st0">
		<g>
			<path class="st1" d="M390.21,197.83c-1.19-2.99-3.71-4.93-5.84-7.12c-9.74-9.99-20.87-18.27-32.62-25.74
				c-25.65-16.32-53.22-28.67-81.68-39.11c-31.77-11.66-64.32-20.5-97.55-26.82c-18.32-3.48-36.75-6.17-55.34-7.72
				c-3.37-0.28-6.74-0.57-10.11-0.79c-2.78-0.18-2.87-0.25-2.15-2.9c5.91-21.65,11.84-43.29,17.76-64.93
				c0.58-2.13,1.23-4.25,1.73-6.4c0.3-1.27,0.97-1.64,2.22-1.51c9.48,0.96,18.95,1.89,28.4,3.12c26.6,3.47,52.87,8.62,78.8,15.44
				c38.25,10.06,75.35,23.19,110.49,41.52c17.06,8.9,33.39,18.97,48.08,31.49c10.04,8.57,19.1,18,25.35,29.8
				c3.82,7.21,5.93,14.85,5.67,23.06c-0.03,0.95-0.19,1.93-0.45,2.85c-6.14,22.48-12.3,44.96-18.46,67.43
				c-0.14,0.52-0.38,1.02-0.57,1.54c-0.93-0.3-0.94-1.12-0.97-1.86c-0.35-10.54-4.67-19.52-10.78-27.83
				C391.4,200.28,390.27,199.34,390.21,197.83z"/>
			<path class="st1" d="M66.16,222.77c-7.57-9.08-13.29-18.96-13.34-31.26c0-0.61-0.17-1.21-0.26-1.82
				c4.06-15.96,13.07-28.44,26.57-37.75c12.63-8.7,26.84-13.46,41.68-16.59c13.68-2.89,27.55-4.1,41.51-4.69
				c15.34-0.65,30.66-0.17,45.96,0.63c12.89,0.67,25.76,1.67,38.59,3.11c1.76,0.2,2,0.74,1.56,2.33
				c-6.4,23.23-12.75,46.48-19.1,69.73c-0.34,1.25-0.91,2.48-0.68,3.84c-0.1,0.14-0.22,0.16-0.35,0.04
				c-6.27-1.01-12.61-1.43-18.93-1.96c-18.23-1.54-36.5-2.54-54.79-2.44c-19.28,0.11-38.49,1.27-57.37,5.61
				C86.42,214.04,75.97,217.52,66.16,222.77z"/>
		</g>
		<g>
			<path class="st2" d="M66.16,222.77c4.25,5.67,9.4,10.47,14.74,15.05c15.99,13.7,33.91,24.43,52.63,33.89
				c37.13,18.76,76.22,32.14,116.5,42.22c23.12,5.78,46.5,10.16,70.14,13.17c10.07,1.28,20.17,2.27,30.29,2.9
				c1.71,0.11,1.86,0.59,1.45,2.09c-6.57,23.88-13.11,47.77-19.6,71.67c-0.41,1.51-1.02,1.95-2.55,1.82
				c-12.72-1.12-25.4-2.6-38.04-4.45c-28.65-4.19-56.88-10.31-84.67-18.4c-37.61-10.96-74.03-24.87-108.05-44.53
				c-16.49-9.53-32.1-20.3-45.39-34.1c-8.16-8.48-15.14-17.77-18.6-29.25c-1.99-6.59-2.34-13.14-0.41-19.95
				c5.98-21.16,11.67-42.4,17.47-63.61c0.15-0.53,0.32-1.05,0.48-1.58c1.62,0.05,1.33,1.37,1.31,2.26
				c-0.1,6.6,2.05,12.59,4.98,18.34c1.78,3.5,3.97,6.77,6.38,9.87C65.85,220.94,66.32,221.73,66.16,222.77z"/>
			<path class="st2" d="M228.32,210.33c0.12,0.02,0.23,0.01,0.35-0.04c12.7,1.31,25.41,2.43,38.15,3.14
				c26.98,1.5,53.93,1.98,80.74-2.26c14.86-2.35,29.25-6.27,42.65-13.34c0.65,0.15,1.05,0.61,1.44,1.11
				c6.16,7.95,11.02,16.5,12.08,26.75c0.18,1.78,0.15,3.57,0.22,5.36c-4.78,18.62-16.2,32.01-32.69,41.36
				c-12.71,7.21-26.54,11.16-40.81,13.74c-21.32,3.85-42.85,4.21-64.42,3.71c-18.72-0.44-37.38-1.87-56-3.79
				c-1.19-0.12-2.51,0.03-1.93-2.08C214.88,259.45,221.59,234.89,228.32,210.33z"/>
		</g>
		<g>
			<path class="st2" d="M561.43,448.64c2.23-8.33,4.42-16.66,6.69-24.98c20.7-75.67,41.4-151.34,62.13-227.01
				c4.33-15.8,9.35-31.36,17.4-45.75c7.64-13.67,17.39-25.4,31.19-33.29c13.17-7.53,27.47-10.11,42.47-9.45
				c8.06,0.35,15.94,1.7,23.28,5.22c10.48,5.03,17.46,12.85,19.34,24.66c2.29,14.41-6.82,28.58-20.43,31.38
				c-8,1.65-15.48,0.27-21.54-5.6c-5.01-4.86-6.62-10.9-4.81-17.67c0.76-2.85,1.98-5.59,2.98-8.38c0.14-0.39,0.28-0.78,0.41-1.17
				c2.35-7.23,0.02-10.58-7.52-11.27c-7.29-0.67-13.27,1.82-18.3,6.93c-6.25,6.34-10.03,14.17-13.03,22.38
				c-4.63,12.73-7.5,25.98-11.23,38.97c-1.39,4.84-2.59,9.74-4.04,14.56c-0.56,1.88-0.17,2.3,1.77,2.29
				c24.66-0.06,49.32-0.04,73.97-0.04c0.48,0,0.97,0,1.45,0c2.5,0.01,2.52,0.02,1.87,2.37c-10.48,38.34-20.98,76.67-31.41,115.02
				c-0.44,1.61-1.12,2.04-2.68,2.03c-11.67-0.05-23.35-0.08-35.02,0.02c-2.12,0.02-2.14-0.66-1.67-2.37
				c8.64-31.4,17.22-62.82,25.82-94.23c0.09-0.33,0.13-0.69,0.26-1c0.66-1.54,0.19-2.03-1.49-2.03
				c-12.36,0.05-24.73,0.09-37.09-0.03c-2.1-0.02-2.12,1.29-2.47,2.57c-9.36,34.21-18.72,68.42-28.07,102.62
				c-10.14,37.07-20.28,74.14-30.41,111.21c-0.18,0.66-0.29,1.34-0.43,2.02C587.68,448.64,574.56,448.64,561.43,448.64z"/>
			<path class="st2" d="M1093.17,232.3c-0.42,1.59-0.75,3.22-1.29,4.77c-2.83,8.11-8.03,13.63-16.87,14.88
				c-5.92,0.84-10.88-1.03-14.68-5.76c-2.09-2.6-3.56-5.58-5.24-8.43c-3.6-6.07-6.75-6.75-12.34-2.4
				c-7.08,5.51-11.72,12.94-15.88,20.72c-5.63,10.51-8.5,21.97-11.6,33.35c-3.48,12.78-6.99,25.55-10.43,38.34
				c-0.4,1.5-1.02,2.09-2.66,2.08c-11.67-0.07-23.34-0.07-35.01-0.01c-1.77,0.01-2.25-0.34-1.73-2.22
				c10.57-38.45,21.08-76.92,31.57-115.39c0.38-1.38,0.96-1.84,2.41-1.84c11.81,0.06,23.62,0.07,35.43-0.01
				c1.89-0.01,1.96,0.62,1.53,2.16c-1.86,6.57-3.63,13.17-5.43,19.76c-0.11,0.38-0.2,0.77-0.34,1.32c1-0.45,1.25-1.28,1.71-1.91
				c6.9-9.43,15.16-17.19,26.41-21.16c5.97-2.11,12.11-2.72,18.36-1.5c8.32,1.63,13.99,7.33,15.68,15.66
				c0.09,0.47,0.07,0.97,0.44,1.35C1093.17,228.15,1093.17,230.23,1093.17,232.3z"/>
			<path class="st2" d="M727.36,329.39c25.97-32.94,51.85-65.78,77.77-98.66c-0.89-0.73-1.75-0.44-2.53-0.44
				c-14.92-0.02-29.84-0.04-44.75,0.01c-1.73,0.01-2.32-0.26-1.74-2.18c1.58-5.29,2.97-10.63,4.37-15.97
				c0.34-1.28,0.93-1.74,2.29-1.74c33.56,0.03,67.13,0.03,100.69,0.04c0.46,0,0.97-0.16,1.58,0.47
				c-25.89,32.85-51.81,65.73-77.74,98.64c0.94,0.77,1.87,0.47,2.71,0.47c16.92,0.02,33.84,0.01,50.76,0.02
				c2.44,0,2.44,0.01,1.79,2.39c-1.42,5.19-2.89,10.37-4.22,15.58c-0.36,1.41-1,1.83-2.42,1.83c-35.57-0.04-71.14-0.03-106.7-0.03
				C728.68,329.82,728.11,329.95,727.36,329.39z"/>
			<path class="st2" d="M599.87,166.09c-9.71-9.61-21.89-13.63-35.2-14.56c-11.37-0.8-22.78-0.15-32.11-0.33
				c-13.6,0-25.14,0.04-36.67-0.04c-1.73-0.01-2.37,0.59-2.81,2.18c-15.85,58.1-31.74,116.19-47.66,174.28
				c-0.45,1.63-0.37,2.26,1.62,2.25c12.29-0.09,24.58-0.08,36.88,0c1.68,0.01,2.19-0.66,2.59-2.14c5.6-20.64,11.28-41.26,16.86-61.9
				c0.45-1.66,1.14-2.13,2.82-2.12c10.91,0.08,21.82,0.05,32.73,0.04c8.11-0.01,16.12-0.83,23.99-2.85
				c28.43-7.32,47.69-28.86,50.42-57.09C614.74,189.31,610.35,176.47,599.87,166.09z M544.35,238.92
				c-7.92,3.08-16.13,4.13-23.36,3.73c-3.84,0-6.46-0.09-9.08,0.03c-1.79,0.08-2.05-0.46-1.58-2.13
				c5.12-18.54,10.17-37.1,15.24-55.66c1.02-3.72,2.06-7.44,3.06-11.17c0.23-0.87,0.49-1.5,1.59-1.49
				c5.66,0.07,11.35-0.29,16.97,0.18c13.34,1.13,22.65,10.53,24.19,23.91C573.66,216.09,564.01,231.27,544.35,238.92z"/>
			<path class="st2" d="M967.55,243.82c-3.02-16.31-11.67-28.21-27.75-33.68c-12.19-4.14-24.68-4.56-37.12-1.1
				c-15.66,4.35-27.64,13.94-36.69,27.15c-10.64,15.53-16.65,32.53-13.12,51.6c4.07,22,16.74,36.7,38.63,42.71
				c11.47,3.15,23.12,2.63,34.72,0.59c10.37-1.83,20.14-5.25,28.9-11.28c1.23-0.84,1.56-1.57,0.94-3.03
				c-2.06-4.82-4.02-9.69-5.9-14.58c-0.61-1.59-1.15-1.54-2.46-0.66c-8.7,5.92-18.31,9.22-28.85,9.78
				c-13.12,0.7-23.54-6.09-27.77-18.22c-2.06-5.89-2.51-11.99-2.04-18.19c0.12-1.59,0.69-2.03,2.27-2.02
				c12.09,0.07,24.17,0.04,36.26,0.04c12.02,0,24.04-0.04,36.05,0.05c1.8,0.01,2.51-0.58,2.96-2.25
				C968.94,261.82,969.22,252.83,967.55,243.82z M934.92,253.61c-0.17,1.56-1.27,1.18-2.15,1.18c-6.48,0.03-12.97,0.01-19.45,0.01
				c0-0.03,0-0.07,0-0.1c-6.48,0-12.97-0.05-19.45,0.04c-1.76,0.02-1.91-0.47-1.4-2c2.17-6.54,5.05-12.7,9.58-17.95
				c5.08-5.88,11.29-9.17,19.34-7.97c5.35,0.8,9.17,3.65,11.38,8.53C935.41,241.19,935.62,247.35,934.92,253.61z"/>
		</g>
	</g>
</g>
</svg>
