<?xml version="1.0" encoding="utf-8"?>
<!-- Generator: Adobe Illustrator 23.0.0, SVG Export Plug-In . SVG Version: 6.00 Build 0)  -->
<svg version="1.1" id="Layer_1" xmlns="http://www.w3.org/2000/svg" xmlns:xlink="http://www.w3.org/1999/xlink" x="0px" y="0px"
	 viewBox="0 0 1363 480" style="enable-background:new 0 0 1363 480;" xml:space="preserve">
<style type="text/css">
	.st0{clip-path:url(#SVGID_2_);}
	.st1{fill:#D0D1D8;}
	.st2{fill:#B7B8BC;}
</style>
<g>
	<defs>
		<rect id="SVGID_1_" x="0.08" width="1362.85" height="480"/>
	</defs>
	<clipPath id="SVGID_2_">
		<use xlink:href="#SVGID_1_"  style="overflow:visible;"/>
	</clipPath>
	<g class="st0">
		<g>
			<path class="st1" d="M1149.81,346.58c-2.11,0.8-2.63,1.14-3.18,1.18c-50.17,3.85-50.2,3.86-65.87-43.85
				c-10.82-32.95-21.55-65.93-34-104.05c-13.46,41.6-25.48,78.14-37.1,114.81c-10.64,33.58-10.46,33.64-45.88,33.57
				c-5.7-0.01-11.4,0-19.85,0c7.31-21.86,14.02-42.08,20.84-62.26c15.4-45.58,31.11-91.06,46.08-136.78
				c3.16-9.65,7.57-13.47,18.1-13.69c50.04-1.08,49.9-1.37,65.52,45.68C1112.67,236.04,1131.14,290.81,1149.81,346.58z"/>
			<path class="st1" d="M862.44,279.54c13.43-41.22,27.42-82.27,39.98-123.75c4.25-14.05,10.19-20.18,25.87-20.02
				c36.72,0.36,36.72-0.55,25.15,33.75c-18.48,54.8-37.2,109.53-55.18,164.49c-3.63,11.1-8.97,14.78-20.78,14.7
				c-48.35-0.32-48.27,0.1-63.77-45.93c-17.17-51-34.19-102.07-52.01-152.85c-4.03-11.47-2.3-14.29,10.01-14.3
				c40.73-0.01,40.81-0.48,53.26,38.12c11.39,35.3,22.57,70.67,33.84,106.01C860.03,279.69,861.23,279.62,862.44,279.54z"/>
			<path class="st1" d="M1279.33,349.09c-24.94,0.59-49.35-1.58-71.74-14c-38.39-21.3-57.15-62.99-50.29-111.71
				c6.5-46.16,35.67-78.68,79.37-88.86c27.46-6.4,54.71-3.49,82.12,0.51c14.5,2.11,10.27,12.61,10.41,20.92
				c0.34,21.47,0.14,21.37-21.09,17.38c-6.76-1.27-13.61-2.11-20.46-2.76c-44.62-4.27-76.73,23.01-78.54,66.64
				c-1.8,43.42,28.03,73.53,72.88,72.8c11.98-0.19,24.04-1.84,35.87-3.9c9.53-1.66,12.76,1.58,11.46,10.65
				c-0.08,0.56-0.02,1.15-0.01,1.72c0.56,26.91,0.57,26.95-25.91,29.1C1295.38,348.22,1287.35,348.59,1279.33,349.09z"/>
		</g>
		<g>
			<path class="st2" d="M458.27,264.22c0-37.83,0.42-75.66-0.25-113.48c-0.21-11.59,2.45-15.97,14.95-15.84
				c30,0.3,30.01-0.35,30.01,29.88c0,55.64-0.36,111.28,0.27,166.91c0.14,12.8-2.87,16.12-16.53,18.06
				c-36.41,5.16-57.73-7.48-71.91-42.05c-12.92-31.52-32.52-60.29-49.22-90.26c-0.21-0.38-0.95-0.46-3.74-1.7
				c0,27.43,0,53.89,0,80.35c0,9.75,0.13,19.5-0.04,29.25c-0.46,26.5,4.12,22.37-23.75,24.03c-16.47,0.98-21.28-3.68-20.96-20.62
				c1.13-59.63,0.75-119.3,0.17-178.95c-0.11-11.38,3.15-14.58,14.37-14.83c53.66-1.18,53.65-1.49,78.59,45.53
				c14.94,28.17,29.88,56.34,44.82,84.51C456.12,264.74,457.19,264.48,458.27,264.22z"/>
			<path class="st2" d="M641.96,129.25c91.85-0.99,112.24,71.14,103.71,133.88c-4.99,36.7-22.69,67.39-59.76,79.33
				c-40.9,13.17-82.21,12.53-117.15-16.95c-48.48-40.91-43.5-142,7.76-179.17C596.14,132.12,618.91,130.21,641.96,129.25z
				 M588.73,239.34c-0.02,14.52,2.51,28.44,9.41,41.42c9.67,18.18,24.17,29.23,45.26,28.63c21.19-0.6,35.17-12.75,43.27-31.51
				c11.82-27.4,9.81-55.09-1.98-81.76c-9.43-21.32-35.9-31.54-58.23-24.3C603.96,179.11,588.76,206.31,588.73,239.34z"/>
			<path class="st2" d="M94.92,349.55c-8.28-0.66-19.18-1.3-30.01-2.44c-32.55-3.43-32.09-3.5-31.26-36.94
				c0.24-9.81,3.46-11.76,12.11-9.99c18.08,3.71,36.48,4.07,54.84,3.87c8.55-0.09,17.19-1.08,25.6-2.66
				c5.56-1.04,12.07-3.37,13.44-9.44c1.55-6.85-5.27-9.89-9.95-12.33c-22.86-11.91-46.18-22.95-69.07-34.82
				c-20.33-10.54-29.18-28.51-29.87-50.65c-0.92-29.57,15.24-49.93,47.01-59.7c31.84-9.8,63.71-3.78,95.56,0.25
				c6.06,0.77,7.12,4.6,6.84,9.78c-0.35,6.3-0.92,12.66-0.44,18.92c0.8,10.5-3.48,12.15-13.18,10.64
				c-16.96-2.64-34.15-4.22-51.3-5.09c-10.73-0.55-25.13-1.32-27.82,11.22c-2.6,12.14,10.83,17.44,20.33,22.27
				c16.84,8.56,34.41,15.74,51.08,24.61c15.49,8.23,28.36,19.55,33.54,37.39c8.4,28.92-4.46,58.81-31.35,72.72
				C141.08,347.47,119.55,349.82,94.92,349.55z"/>
			<path class="st2" d="M226.87,240.93c0-31.01,0.33-62.02-0.19-93.02c-0.16-9.7,2.91-12.63,12.65-12.94
				c42.03-1.35,42.02-1.67,42.02,40.3c0,52.83-0.35,105.66,0.26,158.48c0.14,12.08-3.49,15.51-15.45,15.53
				c-39.3,0.07-39.3,0.53-39.3-39.45C226.87,286.87,226.87,263.9,226.87,240.93z"/>
		</g>
	</g>
</g>
</svg>
